<svg width="48" height="48" viewBox="0 0 48 48" fill="none" xmlns="http://www.w3.org/2000/svg" data-astro-cid-sz7xmlte=""> <title>Matsodon</title> <path d="M33.57 36.585C39.618 35.865 44.88 32.16 45.54 28.776C46.584 23.442 46.5 15.759 46.5 15.759C46.5 5.349 39.642 2.295 39.642 2.295C36.186 0.714 30.249 0.051 24.081 0H23.931C17.76 0.051 11.826 0.714 8.37 2.295C8.37 2.295 1.515 5.346 1.515 15.759L1.509 17.745C1.497 19.665 1.488 21.795 1.542 24.018C1.791 34.2 3.42 44.238 12.882 46.728C17.244 47.877 20.991 48.117 24.009 47.952C29.478 47.652 32.55 46.011 32.55 46.011L32.37 42.06C32.37 42.06 28.461 43.29 24.069 43.14C19.719 42.99 15.129 42.672 14.424 37.356C14.3602 36.8625 14.3271 36.3656 14.325 35.868C14.325 35.868 18.597 36.906 24.009 37.152C27.318 37.302 30.42 36.96 33.573 36.585H33.57ZM38.409 29.175H33.39V16.935C33.39 14.358 32.298 13.05 30.117 13.05C27.705 13.05 26.496 14.601 26.496 17.673V24.372H21.504V17.67C21.504 14.598 20.295 13.047 17.883 13.047C15.702 13.047 14.61 14.355 14.61 16.935V29.172H9.591V16.566C9.591 13.99 10.251 11.944 11.571 10.428C12.939 8.913 14.727 8.136 16.95 8.136C19.518 8.136 21.462 9.12 22.749 11.085L24 13.17L25.251 11.085C26.538 9.12 28.482 8.136 31.053 8.136C33.273 8.136 35.061 8.913 36.426 10.428C37.75 11.942 38.411 13.988 38.409 16.566V29.175Z" fill="#fff" data-astro-cid-sz7xmlte=""></path> </svg>